# xmcd
#
# Track frame offsets:
# 150
# 17142
# 30200
# 45523
# 69990
# 85418
# 95627
# 115868
# 131075
# 144236
# 158009
# 171377
# 189635
#
# Disc length: 2875 seconds
#
#
# Revision: 0
# Processed by: cddbd v1.5.2PL0 Copyright (c) Steve Scherf et al.
# Submitted via: FreeRIP 2.942 
#
DISCID=a60b390d
DTITLE=Glen Campbell - Rhinstone Cowboy
DYEAR=2006
DGENRE=Country
TTITLE0=Southern Nights
TTITLE1=William Tell Overture
TTITLE2=Rollin In My Sweet Babys Arms
TTITLE3=Orange Blossom Special
TTITLE4=Im So Lonesome I could Cry
TTITLE5=Try A Little Kindness
TTITLE6=Amazing Grace
TTITLE7=Back In Your Loving Arms
TTITLE8=True Grit
TTITLE9=The Hand That Rocks The Cradle
TTITLE10=One Woman Man
TTITLE11=Its Your World Boys And Girls
TTITLE12=Mull Of Kintyre
EXTD=
EXTT0=
EXTT1=
EXTT2=
EXTT3=
EXTT4=
EXTT5=
EXTT6=
EXTT7=
EXTT8=
EXTT9=
EXTT10=
EXTT11=
EXTT12=
PLAYORDER=
